<svg width="1200" height="630" viewBox="0 0 1200 630" fill="none" xmlns="http://www.w3.org/2000/svg">
<rect width="1200" height="630" fill="#1E40AF"/>
<rect x="0" y="0" width="1200" height="630" fill="url(#gradient)"/>
<defs>
<linearGradient id="gradient" x1="0%" y1="0%" x2="100%" y2="100%">
<stop offset="0%" style="stop-color:#1E40AF"/>
<stop offset="100%" style="stop-color:#3B82F6"/>
</linearGradient>
</defs>
<text x="600" y="200" font-family="Montserrat, sans-serif" font-size="64" font-weight="700" fill="white" text-anchor="middle">CA Car Seller Kit</text>
<text x="600" y="280" font-family="Inter, sans-serif" font-size="24" font-weight="500" fill="rgba(255, 255, 255, 0.9)" text-anchor="middle">Complete California car selling guide with DMV paperwork</text>
<text x="600" y="330" font-family="Inter, sans-serif" font-size="24" font-weight="500" fill="rgba(255, 255, 255, 0.9)" text-anchor="middle">Basic Kit: $19.99  |  Premium Kit: $97</text>
<circle cx="600" cy="450" r="80" fill="rgba(255, 255, 255, 0.1)"/>
<svg x="520" y="370" width="160" height="160" viewBox="0 0 24 24" fill="none" xmlns="http://www.w3.org/2000/svg">
<path d="M9 17H15M12 17V12M12 12H15C15.5523 12 16 11.5523 16 11V5C16 4.44772 15.5523 4 15 4H9C8.44772 4 8 4.44772 8 5V11C8 11.5523 8.44772 12 9 12H12Z" stroke="white" stroke-width="2" stroke-linecap="round" stroke-linejoin="round"/>
</svg>
</svg>
